<?xml version="1.0" encoding="UTF-8"?>
<svg id="Layer_2" data-name="Layer 2" xmlns="http://www.w3.org/2000/svg" viewBox="0 0 188.41 56.48">
  <defs>
    <style>
      .cls-1 {
        fill: #00ce7c;
      }

      .cls-2 {
        fill: #2d2a26;
      }
    </style>
  </defs>
  <g id="Layer_1-2" data-name="Layer 1">
    <g>
      <path class="cls-2" d="M93.4,23.66V.06h10.51c2.33,0,4.18,.57,5.54,1.72,1.36,1.15,2.03,2.81,2.03,5,0,1.72-.64,3.2-1.92,4.42,.86,.44,1.55,1.13,2.07,2.07,.51,.94,.77,2.04,.77,3.3,0,2.23-.71,3.97-2.11,5.22-1.41,1.25-3.32,1.88-5.74,1.88h-11.14Zm9.81-18.2h-3.72v3.56h3.66c1.41,0,2.11-.59,2.11-1.77s-.68-1.8-2.05-1.8Zm.57,8.74h-4.29v4.07h4.32c1.58,0,2.37-.67,2.37-2.02s-.8-2.05-2.4-2.05Z"/>
      <path class="cls-2" d="M135.33,.06l-8.93,14.95v8.64h-6.09V15.01L111.35,.06h7.07l4.92,8.9L128.26,.06h7.07Z"/>
      <path class="cls-2" d="M93.4,56.13v-23.6h10.51c2.34,0,4.18,.57,5.54,1.72,1.36,1.15,2.04,2.81,2.04,5,0,1.72-.64,3.2-1.93,4.42,.86,.44,1.55,1.13,2.07,2.07,.51,.94,.77,2.04,.77,3.3,0,2.23-.7,3.97-2.11,5.22-1.41,1.25-3.32,1.88-5.74,1.88h-11.14Zm9.81-18.2h-3.72v3.56h3.66c1.41,0,2.11-.59,2.11-1.77s-.68-1.8-2.05-1.8Zm.57,8.74h-4.29v4.07h4.32c1.58,0,2.37-.67,2.37-2.02s-.8-2.05-2.4-2.05Z"/>
      <path class="cls-2" d="M129.62,32.53v5.4h-9.37v3.53h8.01v5.27h-8.01v4.01h9.65l-2.88,5.39h-12.86v-23.6h15.46Z"/>
      <path class="cls-2" d="M141.72,32.06l12.84,24.07h-7.04l-1.17-2.37h-9.31l-1.17,2.37h-7.01l12.84-24.07Zm0,12.3l-2.34,4.7h4.64l-2.3-4.7Z"/>
      <path class="cls-2" d="M169.8,32.53v5.4h-7.35v18.2h-6.09v-18.2h-7.38v-5.4h20.82Z"/>
      <path class="cls-2" d="M188.06,39.85l-6.21,.31c0-.84-.25-1.5-.74-1.99-.49-.48-1.18-.73-2.07-.73-.76,0-1.36,.18-1.81,.55-.45,.37-.68,.88-.68,1.53,0,.59,.26,1.04,.79,1.36,.57,.3,1.61,.63,3.12,1.01,2.75,.74,4.77,1.64,6.04,2.7,1.27,1.06,1.91,2.53,1.91,4.4,0,2.48-.83,4.35-2.49,5.62-1.68,1.24-3.81,1.86-6.37,1.86-2.92,0-5.29-.7-7.1-2.08-1.79-1.41-2.67-3.38-2.65-5.9l6.21-.32c-.02,.9,.3,1.64,.96,2.19,.66,.56,1.52,.84,2.57,.84,1.77,0,2.65-.63,2.65-1.89,0-.55-.3-1.01-.91-1.4s-1.64-.77-3.09-1.15c-2.31-.57-4.14-1.29-5.49-2.18-1.58-1.03-2.37-2.65-2.37-4.86s.74-3.99,2.21-5.4c1.49-1.43,3.62-2.14,6.37-2.14s4.94,.68,6.63,2.05c1.64,1.35,2.48,3.22,2.52,5.62Z"/>
    </g>
    <path class="cls-1" d="M0,0H66.82c12.99,0,19.33,4.89,19.33,15,0,5.29-1.84,9.38-5.53,11.87,5.13,2.25,6.98,7.06,7.06,13.23,.08,10.34-6.33,16.04-19.97,16.04H0V0ZM64.26,21.57c2.57,0,4.09-1.36,4.09-4.41s-1.52-4.25-4.09-4.25h-5.85v8.66h5.85Zm.16,21.65c3.05,0,4.73-1.36,4.73-4.57s-1.68-4.57-4.73-4.57h-6.01v9.14h6.01Z"/>
  </g>
</svg>