<?xml version="1.0" encoding="UTF-8"?><svg id="Layer_2" xmlns="http://www.w3.org/2000/svg" viewBox="0 0 260.1 27.1"><defs><style>.cls-1{fill:#de0b19;}</style></defs><g id="Layer_1-2"><g><path class="cls-1" d="M0,26.5V.5H11.6c2.6,0,4.6,.6,6.1,1.9,1.5,1.3,2.2,3.1,2.2,5.5s-.7,3.5-2.1,4.9c1,.5,1.7,1.2,2.3,2.3,.6,1,.9,2.2,.9,3.6,0,2.5-.8,4.4-2.3,5.8-1.6,1.4-3.7,2.1-6.3,2.1H0ZM10.8,6.4H6.7v3.9h4c1.6,0,2.3-.6,2.3-1.9s-.8-2-2.3-2Zm.6,9.6H6.7v4.5h4.8c1.7,0,2.6-.7,2.6-2.2s-.9-2.3-2.6-2.3Z"/><path class="cls-1" d="M53.3,0l14.2,26.6h-7.8l-1.3-2.6h-10.3l-1.3,2.6h-7.7L53.3,0Zm0,13.6l-2.6,5.2h5.1l-2.5-5.2Z"/><path class="cls-1" d="M84.3,.5V6.5h-8.1V26.6h-6.7V6.5h-8.1V.5h23Z"/><path class="cls-1" d="M39.9,.4V6.4h-10.4v3.9h8.9v5.8h-8.9v4.4h10.7l-3.2,6h-14.2V.4h17.1Z"/><g><path class="cls-1" d="M109.9,8.6l-6.9,.3c0-.9-.3-1.7-.8-2.2s-1.3-.8-2.3-.8-1.5,.2-2,.6c-.5,.4-.7,1-.7,1.7s.3,1.1,.9,1.5c.6,.3,1.8,.7,3.4,1.1,3,.8,5.3,1.8,6.7,3,1.4,1.2,2.1,2.8,2.1,4.9s-.9,4.8-2.8,6.2c-1.9,1.4-4.2,2.1-7,2.1s-5.8-.8-7.8-2.3c-2-1.6-2.9-3.7-2.9-6.5l6.9-.3c0,1,.3,1.8,1.1,2.4,.7,.6,1.7,.9,2.8,.9,1.9,0,2.9-.7,2.9-2.1s-.3-1.1-1-1.6c-.7-.4-1.8-.9-3.4-1.3-2.6-.6-4.6-1.4-6.1-2.4-1.7-1.1-2.6-2.9-2.6-5.4s.8-4.4,2.4-6c1.6-1.6,4-2.4,7-2.4s5.5,.8,7.3,2.3c1.8,1.5,2.7,3.6,2.8,6.2Z"/><path class="cls-1" d="M124.9,.1c4.1,0,7.4,1.2,9.9,3.7,2.6,2.4,3.9,5.7,3.9,9.7s-1.3,7.3-3.9,9.7c-2.5,2.4-5.8,3.7-9.9,3.7s-7.4-1.2-10-3.7c-2.6-2.5-3.8-5.7-3.8-9.7s1.3-7.3,3.8-9.7c2.6-2.5,5.9-3.7,10-3.7Zm0,6c-2.1,0-3.8,.7-5.1,2-1.3,1.3-1.9,3.2-1.9,5.4s.6,4.1,1.9,5.4c1.3,1.3,2.9,2,5.1,2s3.8-.7,5-2c1.2-1.3,1.9-3.1,1.9-5.4s-.6-4.1-1.9-5.4c-1.2-1.3-2.9-2-5-2Z"/><path class="cls-1" d="M168.8,0V26.6h-6.7v-9.1l-7.4,9.1-7.5-9.1v9.1h-6.7V0l14.2,17.1L168.8,0Z"/><path class="cls-1" d="M188.3,.5V6.5h-10.3v3.9h8.8v5.8h-8.8v4.4h10.4v6h-17.1V.5h17.1Z"/><path class="cls-1" d="M203.4,.1c4.1,0,7.4,1.2,9.9,3.7,2.6,2.4,3.9,5.7,3.9,9.7s-1.3,7.3-3.9,9.7c-2.5,2.4-5.8,3.7-9.9,3.7s-7.4-1.2-10-3.7c-2.6-2.5-3.8-5.7-3.8-9.7s1.3-7.3,3.8-9.7c2.6-2.5,5.9-3.7,10-3.7Zm0,6c-2.1,0-3.8,.7-5.1,2-1.3,1.3-1.9,3.2-1.9,5.4s.6,4.1,1.9,5.4c1.3,1.3,2.9,2,5.1,2s3.8-.7,5-2c1.2-1.3,1.9-3.1,1.9-5.4s-.6-4.1-1.9-5.4c-1.2-1.3-2.9-2-5-2Z"/><path class="cls-1" d="M218.9,0l14.9,12.7V.5h6.7V27.1l-14.9-12.7v12.2h-6.7V0Z"/><path class="cls-1" d="M260,.5V6.5h-10.3v3.9h8.8v5.8h-8.8v4.4h10.4v6h-17.1V.5h17.1Z"/></g></g></g></svg>