<svg width="24" height="25" viewBox="0 0 24 25" fill="none" xmlns="http://www.w3.org/2000/svg">
<path fill-rule="evenodd" clip-rule="evenodd" d="M16.6603 2.41968C15.794 2.40715 14.8992 2.55226 14.0002 3.00482C13.3198 3.34733 12.6626 3.85306 12.0246 4.55844C11.3827 3.8529 10.7201 3.35124 10.0376 3.01163C9.13809 2.56396 8.24778 2.4196 7.40152 2.4196C3.86249 2.4196 1 5.36765 1 9.3347C1 13.2674 3.65361 16.5406 6.20224 18.7624C7.49338 19.8879 8.79871 20.7801 9.81657 21.3924C10.3256 21.6986 10.7682 21.9382 11.1071 22.1039C11.2755 22.1862 11.4257 22.2539 11.5499 22.303C11.6114 22.3273 11.6755 22.3506 11.7377 22.369C11.779 22.3812 11.8932 22.4149 12.0255 22.4149C12.1578 22.4149 12.272 22.3812 12.3133 22.369C12.3754 22.3506 12.4396 22.3273 12.5011 22.303C12.6253 22.2539 12.7755 22.1862 12.9439 22.1039C13.2827 21.9382 13.7254 21.6986 14.2344 21.3924C15.2523 20.7801 16.5576 19.8879 17.8487 18.7624C20.3974 16.5406 23.051 13.2674 23.051 9.33469C23.051 5.35748 20.1813 2.47063 16.6603 2.41968Z" fill="white"/>
<path fill-rule="evenodd" clip-rule="evenodd" d="M11.1928 8.6968C11.1928 8.3152 11.5022 8.00586 11.8838 8.00586C14.3005 8.00586 16.2597 9.96504 16.2597 12.3818C16.2597 12.7634 15.9504 13.0728 15.5688 13.0728C15.1872 13.0728 14.8778 12.7634 14.8778 12.3818C14.8778 10.966 13.8952 9.77978 12.5747 9.46786V14.2243C12.5747 15.6235 11.4404 16.7578 10.0413 16.7578C8.64207 16.7578 7.50781 15.6235 7.50781 14.2243C7.50781 12.8251 8.64207 11.6909 10.0413 11.6909C10.4559 11.6909 10.8473 11.7905 11.1928 11.9671V8.6968Z" fill="#323232"/>
</svg>
