<?xml version="1.0" encoding="UTF-8"?>
<svg id="Layer_2" data-name="Layer 2" xmlns="http://www.w3.org/2000/svg" viewBox="0 0 247.22 57.07">
  <defs>
    <style>
      .cls-1 {
        fill: #df0b17;
      }

      .cls-2 {
        fill: #2d2a26;
      }
    </style>
  </defs>
  <g id="Layer_1-2" data-name="Layer 1">
    <path class="cls-1" d="M0,.47H66.82c12.99,0,19.33,4.89,19.33,15,0,5.29-1.84,9.38-5.53,11.87,5.13,2.25,6.98,7.06,7.06,13.23,.08,10.34-6.33,16.04-19.97,16.04H0V.47ZM64.26,22.04c2.57,0,4.09-1.36,4.09-4.41s-1.52-4.25-4.09-4.25h-5.85v8.66h5.85Zm.16,21.65c3.05,0,4.73-1.36,4.73-4.57s-1.68-4.57-4.73-4.57h-6.01v9.14h6.01Z"/>
    <g>
      <path class="cls-2" d="M93.4,24.03V.43h10.51c2.33,0,4.18,.57,5.54,1.72,1.36,1.15,2.04,2.81,2.04,5,0,1.72-.64,3.2-1.92,4.42,.86,.44,1.55,1.13,2.07,2.07,.51,.94,.77,2.03,.77,3.3,0,2.23-.7,3.97-2.11,5.22-1.41,1.25-3.32,1.88-5.74,1.88h-11.14Zm9.81-18.2h-3.72v3.56h3.66c1.41,0,2.11-.59,2.11-1.77s-.68-1.8-2.05-1.8Zm.57,8.74h-4.29v4.07h4.32c1.58,0,2.37-.67,2.37-2.02s-.8-2.05-2.4-2.05Z"/>
      <path class="cls-2" d="M141.7,0l12.84,24.07h-7.04l-1.17-2.37h-9.31l-1.17,2.37h-7L141.7,0Zm0,12.3l-2.33,4.7h4.64l-2.3-4.7Z"/>
      <path class="cls-2" d="M169.78,.47V5.87h-7.35V24.07h-6.09V5.87h-7.38V.47h20.82Z"/>
      <path class="cls-2" d="M129.55,.39V5.8h-9.4v3.55h8.04v5.29h-8.04v4.02h9.69l-2.9,5.41h-12.91V.39h15.52Z"/>
      <g>
        <path class="cls-2" d="M111.15,40.32l-6.21,.31c0-.84-.25-1.5-.74-1.99s-1.18-.73-2.07-.73c-.76,0-1.36,.18-1.81,.55-.45,.37-.68,.88-.68,1.53,0,.59,.26,1.04,.79,1.36,.57,.3,1.61,.63,3.12,1.01,2.75,.74,4.77,1.64,6.04,2.7,1.27,1.06,1.91,2.53,1.91,4.4,0,2.48-.83,4.35-2.49,5.62-1.68,1.24-3.81,1.86-6.37,1.86-2.92,0-5.29-.7-7.1-2.08-1.79-1.41-2.67-3.38-2.65-5.9l6.22-.32c-.02,.91,.3,1.64,.96,2.19,.66,.56,1.52,.84,2.57,.84,1.77,0,2.65-.63,2.65-1.89,0-.55-.3-1.02-.91-1.4-.61-.39-1.64-.77-3.09-1.15-2.31-.57-4.14-1.29-5.49-2.18-1.58-1.03-2.37-2.65-2.37-4.86s.74-3.99,2.21-5.39c1.49-1.43,3.62-2.14,6.37-2.14s4.94,.68,6.62,2.05c1.64,1.35,2.48,3.22,2.52,5.62Z"/>
        <path class="cls-2" d="M124.71,32.65c3.68,0,6.67,1.11,8.96,3.34,2.33,2.21,3.5,5.14,3.5,8.8s-1.17,6.61-3.5,8.83c-2.29,2.21-5.28,3.31-8.96,3.31s-6.72-1.1-9.05-3.31c-2.31-2.25-3.47-5.19-3.47-8.83s1.16-6.59,3.47-8.8c2.31-2.23,5.33-3.34,9.05-3.34Zm0,5.39c-1.94,0-3.47,.6-4.61,1.81-1.14,1.21-1.7,2.86-1.7,4.94s.57,3.73,1.7,4.94c1.13,1.21,2.67,1.82,4.61,1.82s3.43-.61,4.56-1.82c1.12-1.21,1.69-2.85,1.69-4.94s-.56-3.73-1.69-4.94c-1.13-1.21-2.65-1.81-4.56-1.81Z"/>
        <path class="cls-2" d="M164.46,32.53v24.07h-6.09v-8.23l-6.75,8.23-6.78-8.23v8.23h-6.09v-24.07l12.87,15.52,12.84-15.52Z"/>
        <path class="cls-2" d="M182.19,33v5.39h-9.37v3.53h8.01v5.27h-8.01v4.01h9.4v5.39h-15.49v-23.6h15.46Z"/>
        <path class="cls-2" d="M195.85,32.65c3.68,0,6.67,1.11,8.96,3.34,2.33,2.21,3.5,5.14,3.5,8.8s-1.17,6.61-3.5,8.83c-2.29,2.21-5.28,3.31-8.96,3.31s-6.72-1.1-9.05-3.31c-2.31-2.25-3.47-5.19-3.47-8.83s1.16-6.59,3.47-8.8c2.31-2.23,5.33-3.34,9.05-3.34Zm0,5.39c-1.94,0-3.47,.6-4.61,1.81-1.14,1.21-1.7,2.86-1.7,4.94s.57,3.73,1.7,4.94c1.13,1.21,2.67,1.82,4.61,1.82s3.43-.61,4.56-1.82c1.12-1.21,1.69-2.85,1.69-4.94s-.56-3.73-1.69-4.94c-1.13-1.21-2.65-1.81-4.56-1.81Z"/>
        <path class="cls-2" d="M209.89,32.53l13.47,11.52v-11.04h6.09v24.07l-13.47-11.48v11.01h-6.09v-24.07Z"/>
        <path class="cls-2" d="M247.18,33v5.39h-9.37v3.53h8.01v5.27h-8.01v4.01h9.4v5.39h-15.49v-23.6h15.46Z"/>
      </g>
    </g>
  </g>
</svg>