<svg width="24" height="24" viewBox="0 0 24 24" fill="none" xmlns="http://www.w3.org/2000/svg">
<path fill-rule="evenodd" clip-rule="evenodd" d="M2 12C2 6.47715 6.47715 2 12 2C17.5228 2 22 6.47715 22 12C22 17.5228 17.5228 22 12 22C10.2435 22 8.59275 21.5471 7.15817 20.7518C6.89316 20.6048 6.57856 20.5681 6.29286 20.6691L3.77027 21.5605C2.81914 21.8966 1.90294 20.9804 2.23903 20.0292L3.16731 17.4022C3.26438 17.1275 3.23427 16.8254 3.10104 16.5662C2.39724 15.1974 2 13.6451 2 12ZM7.0498 13.2998C7.74016 13.2998 8.2998 12.7402 8.2998 12.0498C8.2998 11.3594 7.74016 10.7998 7.0498 10.7998C6.35945 10.7998 5.7998 11.3594 5.7998 12.0498C5.7998 12.7402 6.35945 13.2998 7.0498 13.2998ZM13.2998 12.0498C13.2998 12.7402 12.7402 13.2998 12.0498 13.2998C11.3594 13.2998 10.7998 12.7402 10.7998 12.0498C10.7998 11.3594 11.3594 10.7998 12.0498 10.7998C12.7402 10.7998 13.2998 11.3594 13.2998 12.0498ZM17.0498 13.2998C17.7402 13.2998 18.2998 12.7402 18.2998 12.0498C18.2998 11.3594 17.7402 10.7998 17.0498 10.7998C16.3594 10.7998 15.7998 11.3594 15.7998 12.0498C15.7998 12.7402 16.3594 13.2998 17.0498 13.2998Z" fill="white"/>
</svg>
